<svg width="32" height="32" viewBox="0 0 32 32" fill="none" xmlns="http://www.w3.org/2000/svg">
  <!-- Background circle with gradient -->
  <circle cx="16" cy="16" r="16" fill="url(#gradient)" />
  
  <!-- Lazy/sleeping algorithm symbol - stylized brain/chip hybrid -->
  <g transform="translate(6, 6)">
    <!-- Main chip/brain body -->
    <rect x="2" y="4" width="16" height="12" rx="3" fill="#ffffff" fill-opacity="0.9"/>
    
    <!-- Circuit lines (representing algorithms) -->
    <path d="M4 7 L16 7" stroke="#3b82f6" stroke-width="1.5" stroke-linecap="round"/>
    <path d="M4 10 L14 10" stroke="#3b82f6" stroke-width="1.5" stroke-linecap="round"/>
    <path d="M4 13 L12 13" stroke="#3b82f6" stroke-width="1.5" stroke-linecap="round"/>
    
    <!-- Connection dots -->
    <circle cx="6" cy="7" r="1" fill="#1d4ed8"/>
    <circle cx="8" cy="10" r="1" fill="#1d4ed8"/>
    <circle cx="10" cy="13" r="1" fill="#1d4ed8"/>
    
    <!-- Lazy "ZZZ" symbols -->
    <text x="12" y="6" font-family="Inter, sans-serif" font-size="3" font-weight="600" fill="#6366f1">Z</text>
    <text x="14" y="4" font-family="Inter, sans-serif" font-size="2.5" font-weight="600" fill="#8b5cf6" opacity="0.7">z</text>
    <text x="15.5" y="2.5" font-family="Inter, sans-serif" font-size="2" font-weight="600" fill="#a855f7" opacity="0.5">z</text>
    
    <!-- Corner connectors (like a chip) -->
    <rect x="0" y="6" width="2" height="1" fill="#6b7280"/>
    <rect x="0" y="9" width="2" height="1" fill="#6b7280"/>
    <rect x="0" y="12" width="2" height="1" fill="#6b7280"/>
    <rect x="18" y="6" width="2" height="1" fill="#6b7280"/>
    <rect x="18" y="9" width="2" height="1" fill="#6b7280"/>
    <rect x="18" y="12" width="2" height="1" fill="#6b7280"/>
  </g>
  
  <!-- Gradient definition -->
  <defs>
    <linearGradient id="gradient" x1="0%" y1="0%" x2="100%" y2="100%">
      <stop offset="0%" style="stop-color:#0f0f23;stop-opacity:1" />
      <stop offset="100%" style="stop-color:#1a1a2e;stop-opacity:1" />
    </linearGradient>
  </defs>
</svg>
